<?xml version="1.0" encoding="utf-8"?>
<!-- Generator: Adobe Illustrator 16.0.3, SVG Export Plug-In . SVG Version: 6.00 Build 0)  -->
<!DOCTYPE svg PUBLIC "-//W3C//DTD SVG 1.1//EN" "http://www.w3.org/Graphics/SVG/1.1/DTD/svg11.dtd">
<svg version="1.1" id="Layer_1" xmlns="http://www.w3.org/2000/svg" xmlns:xlink="http://www.w3.org/1999/xlink" x="0px" y="0px"
	 width="90px" height="48px" viewBox="0 0 90 48" enable-background="new 0 0 90 48" xml:space="preserve">
<g>
	<g>
		<path fill="#FFFFFF" d="M37.231,29.234v-12.05h5.138c1.471,0,2.162,0.16,2.747,0.46c0.975,0.532,1.56,1.4,1.56,2.658
			c0,1.382-0.904,2.215-1.896,2.552v0.019c1.258,0.372,2.338,1.275,2.338,2.976c0,1.349-0.603,2.304-1.629,2.871
			c-0.62,0.337-1.294,0.515-2.888,0.515H37.231z M43.573,19.683c-0.318-0.212-0.708-0.265-1.522-0.265h-2.18v2.568h2.162
			c0.92,0,1.293-0.034,1.629-0.337c0.231-0.212,0.373-0.566,0.373-0.991C44.035,20.216,43.84,19.859,43.573,19.683z M39.871,26.983
			h2.233c0.938,0,1.381-0.034,1.718-0.267c0.354-0.213,0.567-0.674,0.567-1.258c0-0.674-0.336-1.133-0.869-1.313
			c-0.318-0.089-0.727-0.125-1.416-0.125h-2.233V26.983z"/>
		<path fill="#FFFFFF" d="M55.777,27.125c0,0.531,0.07,0.707,0.443,0.707h0.123v1.487c-0.391,0.071-0.779,0.106-1.205,0.106
			c-0.744,0-1.437-0.143-1.611-0.764h-0.021c-0.389,0.426-1.009,0.78-2.373,0.78c-1.858,0-3.049-0.956-3.049-2.711
			c0-1.612,1.226-2.251,3.015-2.534l1.754-0.283c0.461-0.07,0.53-0.125,0.53-0.39v-0.142c0-0.638-0.354-0.993-1.237-0.993
			c-0.904,0-1.4,0.373-1.4,1.224l-2.393-0.018c-0.035-1.932,1.522-2.977,3.896-2.977c2.162,0,3.524,0.673,3.524,2.587v3.917h0.004
			V27.125z M53.368,25.406c-0.195,0.071-0.354,0.16-1.259,0.338c-0.832,0.158-1.452,0.301-1.452,1.026
			c0,0.69,0.514,0.993,1.258,0.993c0.851,0,1.453-0.391,1.453-1.277V25.406z"/>
		<path fill="#FFFFFF" d="M64.841,27.125c0,0.531,0.071,0.707,0.444,0.707h0.123v1.487c-0.391,0.071-0.779,0.106-1.205,0.106
			c-0.744,0-1.436-0.143-1.611-0.764h-0.018c-0.391,0.426-1.012,0.78-2.375,0.78c-1.86,0-3.047-0.956-3.047-2.711
			c0-1.612,1.222-2.251,3.011-2.534l1.755-0.283c0.461-0.07,0.531-0.125,0.531-0.39v-0.142c0-0.638-0.354-0.993-1.239-0.993
			c-0.903,0-1.399,0.373-1.399,1.224l-2.394-0.018c-0.035-1.932,1.524-2.977,3.899-2.977c2.16,0,3.522,0.673,3.522,2.587
			L64.841,27.125L64.841,27.125z M62.432,25.406c-0.195,0.071-0.354,0.16-1.258,0.338c-0.833,0.158-1.453,0.301-1.453,1.026
			c0,0.69,0.514,0.993,1.258,0.993c0.854,0,1.453-0.391,1.453-1.277V25.406z"/>
		<path fill="#FFFFFF" d="M72.313,23.369c-0.621-0.567-1.453-0.922-2.285-0.922c-0.586,0-1.1,0.194-1.1,0.619
			c0,0.444,0.391,0.568,1.26,0.744l1.328,0.284c1.363,0.284,2.604,0.833,2.604,2.444c0,1.967-1.72,2.905-3.722,2.905
			c-1.933,0-3.563-0.852-4.323-1.896l1.63-1.311c0.514,0.709,1.523,1.293,2.693,1.293c0.869,0,1.312-0.285,1.312-0.744
			c0-0.479-0.515-0.566-1.081-0.674l-1.328-0.268c-0.852-0.158-1.578-0.442-2.091-0.887c-0.461-0.391-0.728-0.938-0.728-1.646
			c0-2.002,1.932-2.729,3.598-2.729c1.576,0,2.834,0.585,3.686,1.399L72.313,23.369z"/>
		<path fill="#FFFFFF" d="M78.004,19.719H75.4v-2.534h2.604V19.719z M78.004,29.234H75.4V20.8h2.604V29.234z"/>
		<path fill="#FFFFFF" d="M87.723,27.144c-0.459,1.187-1.646,2.304-3.879,2.304c-2.658,0-4.467-1.543-4.467-4.395
			c0-2.853,1.809-4.466,4.467-4.466c2.338,0,3.543,1.258,3.969,2.623l-2.231,0.762c-0.248-0.922-0.833-1.435-1.735-1.435
			c-1.203,0-1.845,0.922-1.845,2.48s0.655,2.463,1.845,2.463c0.834,0,1.418-0.441,1.684-1.24L87.723,27.144z"/>
	</g>
	<g>
		<g>
			<path fill="#FFFFFF" d="M20.836,15.634L25.666,24l-4.83,8.365h-9.659L6.346,24l4.83-8.366H20.836 M22.915,12.035H9.099L2.189,24
				l6.909,11.965h13.816L29.822,24L22.915,12.035L22.915,12.035z"/>
		</g>
	</g>
</g>
</svg>
