<?xml version="1.0" encoding="utf-8"?>
<!-- Generator: Adobe Illustrator 16.0.3, SVG Export Plug-In . SVG Version: 6.00 Build 0)  -->
<!DOCTYPE svg PUBLIC "-//W3C//DTD SVG 1.1//EN" "http://www.w3.org/Graphics/SVG/1.1/DTD/svg11.dtd">
<svg version="1.1" id="Layer_1" xmlns="http://www.w3.org/2000/svg" xmlns:xlink="http://www.w3.org/1999/xlink" x="0px" y="0px"
	 width="48px" height="48px" viewBox="0 0 48 48" enable-background="new 0 0 48 48" xml:space="preserve">
<g>
	<g>
		<path fill="#727C81" d="M15.234,22.234v6.023c0,0,5.859,0,8.25,0c-1.289,3.914-3.305,6.047-8.25,6.047
			c-4.992,0-8.906-4.055-8.906-9.07c0-4.992,3.914-9.047,8.906-9.047c2.648,0,4.359,0.937,5.93,2.226
			c1.266-1.242,1.148-1.429,4.336-4.453C22.805,11.5,19.195,10,15.234,10C6.82,10,0,16.82,0,25.234
			c0,8.438,6.82,15.258,15.234,15.258c12.586,0,15.68-10.969,14.648-18.258C26.906,22.234,15.234,22.234,15.234,22.234z
			 M42.727,22.539v-5.297h-3.773v5.297h-5.438v3.773h5.438v5.414h3.773v-5.414H48v-3.773H42.727z"/>
	</g>
</g>
</svg>
