<?xml version="1.0" encoding="utf-8"?>
<!-- Generator: Adobe Illustrator 16.0.3, SVG Export Plug-In . SVG Version: 6.00 Build 0)  -->
<!DOCTYPE svg PUBLIC "-//W3C//DTD SVG 1.1//EN" "http://www.w3.org/Graphics/SVG/1.1/DTD/svg11.dtd">
<svg version="1.1" id="Layer_1" xmlns="http://www.w3.org/2000/svg" xmlns:xlink="http://www.w3.org/1999/xlink" x="0px" y="0px"
	 width="48px" height="48px" viewBox="0 0 48 48" enable-background="new 0 0 48 48" xml:space="preserve">
<path fill="#FFFFFF" d="M6.479,4.109l3.186,35.742l14.297,4.039l14.375-4.039l3.186-35.742H6.479z M34.917,12.579l-0.233,2.253
	l-0.076,0.934H24.039h-0.078h-6.139l0.389,4.506h5.75v-0.001h9.014h1.242l-0.154,1.166l-1.012,11.577l-0.076,0.777l-8.937,2.465
	v0.021H23.96l-9.014-2.486l-0.544-6.916h2.021h2.331l0.312,3.496l4.895,1.322l4.896-1.322L29.4,24.7h-5.361h-0.078h-9.79
	l-1.088-12.121l-0.077-1.166h10.955h0.078h10.955L34.917,12.579z"/>
</svg>
