<?xml version="1.0" encoding="utf-8"?>
<!-- Generator: Adobe Illustrator 16.0.3, SVG Export Plug-In . SVG Version: 6.00 Build 0)  -->
<!DOCTYPE svg PUBLIC "-//W3C//DTD SVG 1.1//EN" "http://www.w3.org/Graphics/SVG/1.1/DTD/svg11.dtd">
<svg version="1.1" id="Layer_1" xmlns="http://www.w3.org/2000/svg" xmlns:xlink="http://www.w3.org/1999/xlink" x="0px" y="0px"
	 width="48px" height="48px" viewBox="0 0 48 48" enable-background="new 0 0 48 48" xml:space="preserve">
<g>
	<path fill="#FFFFFF" d="M23.939,3.68L4.818,10.408L7.839,35.46l16.12,8.86l16.203-8.98l3.02-25.051L23.939,3.68z M38.461,34.143
		l-14.566,8.061L9.554,34.248l-2.59-22.403L23.895,5.81l17.381,5.927L38.461,34.143z"/>
	<path fill="#FFFFFF" d="M28.678,25.184l-4.783,2.237h-5.042l-2.37,5.931l-4.41,0.082L23.895,7.132L28.678,25.184z M28.215,24.058
		l-4.29-8.493l-3.519,8.348h3.487L28.215,24.058z"/>
	<polygon fill="#FFFFFF" points="23.895,7.132 23.925,15.563 27.92,23.919 23.903,23.919 23.895,27.416 29.447,27.421 
		32.043,33.434 36.262,33.512 	"/>
</g>
</svg>
